# Blender v2.76 (sub 0) OBJ File: ''
# www.blender.org
mtllib sphere12_mid_bot.mtl
o sphere12_mid
v 0.750000 0.500000 0.433000
v 0.866000 0.500000 0.000000
v 0.707100 0.707100 0.000000
v 0.612400 0.707100 0.353600
v 0.433000 0.500000 0.750000
v 0.353600 0.707100 0.612400
v 0.000000 0.500000 0.866000
v 0.000000 0.707100 0.707100
v -0.433000 0.500000 0.750000
v -0.353600 0.707100 0.612400
v -0.750000 0.500000 0.433000
v -0.612400 0.707100 0.353600
v -0.866000 0.500000 0.000000
v -0.707100 0.707100 0.000000
v -0.750000 0.500000 -0.433000
v -0.612400 0.707100 -0.353600
v -0.433000 0.500000 -0.750000
v -0.353600 0.707100 -0.612400
v 0.000000 0.500000 -0.866000
v 0.000000 0.707100 -0.707100
v 0.433000 0.500000 -0.750000
v 0.353600 0.707100 -0.612400
v 0.750000 0.500000 -0.433000
v 0.612400 0.707100 -0.353600
vn 0.776000 0.595400 0.207900
vn 0.776100 0.595400 0.207900
vn 0.568200 0.595300 0.568200
vn 0.207900 0.595400 0.776100
vn 0.207800 0.595400 0.776100
vn -0.207900 0.595400 0.776000
vn -0.207900 0.595400 0.776100
vn -0.568200 0.595300 0.568200
vn -0.776100 0.595400 0.207900
vn -0.776100 0.595400 0.207800
vn -0.776000 0.595400 -0.207900
vn -0.776100 0.595400 -0.207900
vn -0.568200 0.595300 -0.568200
vn -0.207900 0.595400 -0.776100
vn -0.207800 0.595400 -0.776100
vn 0.207900 0.595400 -0.776000
vn 0.207900 0.595400 -0.776100
vn 0.568200 0.595300 -0.568200
vn 0.776000 0.595400 -0.207900
vn 0.776100 0.595400 -0.207900
usemtl None
s off
f 1//1 2//1 3//1
f 4//2 1//2 3//2
f 5//3 1//3 4//3
f 6//3 5//3 4//3
f 7//4 5//4 6//4
f 8//5 7//5 6//5
f 9//6 7//6 8//6
f 10//7 9//7 8//7
f 11//8 9//8 10//8
f 12//8 11//8 10//8
f 13//9 11//9 12//9
f 14//10 13//10 12//10
f 15//11 13//11 14//11
f 16//12 15//12 14//12
f 17//13 15//13 16//13
f 18//13 17//13 16//13
f 19//14 17//14 18//14
f 20//15 19//15 18//15
f 21//16 19//16 20//16
f 22//17 21//17 20//17
f 23//18 21//18 22//18
f 24//18 23//18 22//18
f 3//19 2//19 23//19
f 3//20 23//20 24//20
