# Blender v2.76 (sub 0) OBJ File: ''
# www.blender.org
mtllib sphere12_bot_top.mtl
o sphere12_bot
v 0.965900 0.258800 0.000000
v 0.836500 0.258800 0.483000
v 0.483000 0.258800 0.836500
v 0.000000 0.258800 0.965900
v -0.483000 0.258800 0.836500
v -0.836500 0.258800 0.483000
v -0.965900 0.258800 0.000000
v -0.836500 0.258800 -0.483000
v -0.483000 0.258800 -0.836500
v 0.000000 0.258800 -0.965900
v 0.483000 0.258800 -0.836500
v 0.836500 0.258800 -0.483000
v 0.866000 0.500000 0.000000
v 0.750000 0.500000 0.433000
v 0.433000 0.500000 0.750000
v 0.000000 0.500000 0.866000
v -0.433000 0.500000 0.750000
v -0.750000 0.500000 0.433000
v -0.866000 0.500000 0.000000
v -0.750000 0.500000 -0.433000
v -0.433000 0.500000 -0.750000
v 0.000000 0.500000 -0.866000
v 0.433000 0.500000 -0.750000
v 0.750000 0.500000 -0.433000
vn 0.896800 0.371400 0.240300
vn 0.656500 0.371500 0.656500
vn 0.240300 0.371400 0.896800
vn -0.240300 0.371400 0.896800
vn -0.656500 0.371500 0.656500
vn -0.896800 0.371400 0.240300
vn -0.896800 0.371400 -0.240300
vn -0.656500 0.371500 -0.656500
vn -0.240300 0.371400 -0.896800
vn 0.240300 0.371400 -0.896800
vn 0.656500 0.371500 -0.656500
vn 0.896800 0.371400 -0.240300
usemtl None
s off
f 2//1 1//1 13//1
f 14//1 2//1 13//1
f 3//2 2//2 14//2
f 15//2 3//2 14//2
f 4//3 3//3 15//3
f 16//3 4//3 15//3
f 5//4 4//4 16//4
f 17//4 5//4 16//4
f 6//5 5//5 17//5
f 18//5 6//5 17//5
f 7//6 6//6 18//6
f 19//6 7//6 18//6
f 8//7 7//7 19//7
f 20//7 8//7 19//7
f 9//8 8//8 20//8
f 21//8 9//8 20//8
f 10//9 9//9 21//9
f 22//9 10//9 21//9
f 11//10 10//10 22//10
f 23//10 11//10 22//10
f 12//11 11//11 23//11
f 24//11 12//11 23//11
f 13//12 1//12 12//12
f 13//12 12//12 24//12
